<svg width="52" height="67" viewBox="0 0 52 67" fill="none" xmlns="http://www.w3.org/2000/svg">
<g clip-path="url(#clip0_431_21590)">
<path d="M24.2654 35.2713V37.0721C24.2654 37.4253 24.4056 37.7641 24.6552 38.0143C24.9049 38.2645 25.2436 38.4058 25.5974 38.4071H27.2737C27.6284 38.4071 27.9685 38.2665 28.2193 38.0162C28.4702 37.7658 28.6112 37.4262 28.6113 37.0721V33.9414H25.5974C25.2444 33.9425 24.9063 34.083 24.6567 34.3321C24.4072 34.5813 24.2665 34.9189 24.2654 35.2713Z" fill="black"/>
<path d="M38.9012 33.9415H34.2337V37.765C34.2337 41.2174 31.4254 44.027 27.9676 44.027H24.948C23.275 44.0249 21.6711 43.3604 20.4881 42.1792C19.3052 40.9981 18.6397 39.3966 18.6378 37.7263V34.5842C18.6397 32.9241 19.3011 31.3325 20.4767 30.1586C21.6524 28.9847 23.2464 28.3243 24.9091 28.3222H28.6113V22.371C28.6102 22.078 28.4928 21.7973 28.2847 21.5906C28.0767 21.3839 27.7951 21.2679 27.5015 21.2682H15.3965C15.2515 21.2683 15.108 21.2968 14.9741 21.3523C14.8401 21.4078 14.7185 21.489 14.616 21.5914C14.5135 21.6938 14.4322 21.8154 14.3768 21.9492C14.3214 22.0829 14.2929 22.2263 14.293 22.371V54.5561L27.2126 66.1819L40.0037 54.5949V35.0444C40.0039 34.7522 39.8878 34.4719 39.6811 34.2651C39.4744 34.0583 39.1939 33.9419 38.9012 33.9415Z" fill="black"/>
<path d="M0.022268 0L0 36.8452C0 39.9474 1.37078 42.9241 3.79644 45.1076L8.66434 49.4911V21.9108C8.66639 20.2508 9.32776 18.6593 10.5034 17.4854C11.679 16.3115 13.273 15.6511 14.9356 15.6489H27.9676C31.4254 15.6489 34.2337 18.4585 34.2337 21.9108V28.3222H39.3606C41.0236 28.3238 42.6181 28.9841 43.7941 30.158C44.9702 31.3319 45.6319 32.9237 45.6339 34.5841V49.4962L48.2367 47.1359C50.6458 44.9525 52 41.9877 52 38.901V0H0.022268Z" fill="black"/>
</g>
<defs>
<clipPath id="clip0_431_21590">
<rect width="52" height="66.1818" fill="white"/>
</clipPath>
</defs>
</svg>
