<svg width="131" height="36" viewBox="0 0 131 36" fill="none" xmlns="http://www.w3.org/2000/svg">
<g clip-path="url(#clip0_431_21606)">
<path d="M13.066 18.9922V19.9619C13.066 20.1521 13.1415 20.3345 13.2759 20.4692C13.4103 20.604 13.5927 20.68 13.7832 20.6808H14.6858C14.8768 20.6808 15.06 20.605 15.195 20.4702C15.3301 20.3354 15.406 20.1526 15.4061 19.9619V18.2761H13.7832C13.5932 18.2767 13.4111 18.3523 13.2767 18.4865C13.1423 18.6207 13.0666 18.8025 13.066 18.9922Z" fill="#0071FF"/>
<path d="M20.9468 18.2761H18.4335V20.3349C18.4335 22.1939 16.9214 23.7068 15.0595 23.7068H13.4335C12.5327 23.7057 11.669 23.3478 11.0321 22.7118C10.3951 22.0758 10.0368 21.2135 10.0358 20.3141V18.6222C10.0368 17.7283 10.3929 16.8713 11.0259 16.2392C11.659 15.6071 12.5173 15.2515 13.4126 15.2504H15.4061V12.0459C15.4055 11.8881 15.3423 11.7369 15.2302 11.6256C15.1182 11.5143 14.9666 11.4519 14.8085 11.452H8.29044C8.21237 11.4521 8.13507 11.4675 8.06295 11.4973C7.99084 11.5272 7.92532 11.5709 7.87014 11.6261C7.81496 11.6812 7.7712 11.7467 7.74136 11.8187C7.71152 11.8907 7.69618 11.9679 7.69621 12.0459V29.3763L14.6529 35.6363L21.5405 29.3972V18.87C21.5406 18.7126 21.4781 18.5617 21.3667 18.4504C21.2554 18.339 21.1044 18.2763 20.9468 18.2761Z" fill="#0071FF"/>
<path d="M0.0119905 0L0 19.8397C0 21.5102 0.738111 23.113 2.04424 24.2887L4.66541 26.649V11.7981C4.66652 10.9043 5.02264 10.0473 5.65567 9.41523C6.28871 8.78314 7.14698 8.42751 8.04227 8.42633H15.0595C16.9214 8.42633 18.4335 9.93921 18.4335 11.7981V15.2504H21.1941C22.0896 15.2513 22.9482 15.6068 23.5815 16.2389C24.2147 16.871 24.571 17.7282 24.5721 18.6222V26.6518L25.9736 25.3809C27.2708 24.2052 28 22.6088 28 20.9467V0H0.0119905Z" fill="#0071FF"/>
</g>
<path d="M54.1882 22.3182H51.5802L49.4842 18.5262H47.8202V22.3182H45.5482V11.6462H50.5402C52.7642 11.6462 54.1242 13.1022 54.1242 15.0862C54.1242 16.9742 52.9402 17.9822 51.7882 18.2542L54.1882 22.3182ZM50.2042 16.5262C51.1162 16.5262 51.8042 15.9822 51.8042 15.0862C51.8042 14.1902 51.1162 13.6462 50.2042 13.6462H47.8202V16.5262H50.2042ZM63.3814 22.3182H55.8294V11.6462H63.3814V13.6462H58.1014V15.9022H63.2694V17.9022H58.1014V20.3182H63.3814V22.3182ZM74.7096 22.3182H72.5176L67.4296 15.3582V22.3182H65.1576V11.6462H67.4936L72.4376 18.3502V11.6462H74.7096V22.3182ZM86.3658 22.3182H84.1738L79.0858 15.3582V22.3182H76.8138V11.6462H79.1498L84.0938 18.3502V11.6462H86.3658V22.3182ZM92.6781 22.3182H88.4701V11.6462H92.6781C96.0221 11.6462 98.3421 13.7742 98.3421 16.9902C98.3421 20.2062 96.0221 22.3182 92.6781 22.3182ZM92.6781 20.3182C94.7901 20.3182 96.0221 18.7982 96.0221 16.9902C96.0221 15.1022 94.8701 13.6462 92.6781 13.6462H90.7421V20.3182H92.6781ZM109.36 22.3182H106.768L106.112 20.5102H101.536L100.864 22.3182H98.2716L102.4 11.6462H105.248L109.36 22.3182ZM105.488 18.5102L103.824 13.9182L102.16 18.5102H105.488ZM120.297 22.3182H117.705L117.049 20.5102H112.473L111.801 22.3182H109.209L113.337 11.6462H116.185L120.297 22.3182ZM116.425 18.5102L114.761 13.9182L113.097 18.5102H116.425ZM129.923 22.3182H127.315L125.219 18.5262H123.555V22.3182H121.283V11.6462H126.275C128.499 11.6462 129.859 13.1022 129.859 15.0862C129.859 16.9742 128.675 17.9822 127.523 18.2542L129.923 22.3182ZM125.939 16.5262C126.851 16.5262 127.539 15.9822 127.539 15.0862C127.539 14.1902 126.851 13.6462 125.939 13.6462H123.555V16.5262H125.939Z" fill="#4E555F"/>
<defs>
<clipPath id="clip0_431_21606">
<rect width="28" height="35.6364" fill="white"/>
</clipPath>
</defs>
</svg>
